<?xml version="1.0" encoding="UTF-8"?><svg xmlns="http://www.w3.org/2000/svg" viewBox="0 0 342.61 161.07"><defs><style>.d,.e{fill:#000;}.e{stroke:#000;stroke-miterlimit:10;stroke-width:3px;}</style></defs><g id="a"/><g id="b"><g id="c"><g><path class="e" d="M1.5,34.28V117.69c0,5.68,2.26,11.13,6.28,15.15l24.61,24.61V73.96c0-5.73-2.28-11.22-6.34-15.26L1.5,34.28Z"/><line class="e" x1="1.5" y1="34.28" x2="93.84" y2="126.74"/><path class="e" d="M93.83,126.78l-24.51-24.39c-4.08-4.06-6.37-9.58-6.37-15.34V43.32c0-5.75,2.29-11.26,6.37-15.32L93.83,3.61V126.78Z"/></g><path class="d" d="M224.71,62.16v-2.53h-45.02v2.49c7.53,.45,9.69,1.69,9.97,5.7,.28,2.67,.47,6.5,.47,14.78v21.82l-39.89-44.79h-14.11v2.49c4.61,.45,6.59,.98,8.37,3.21,1.69,1.96,1.88,3.38,1.88,5.88v22.71c0,8.1-.19,12.11-.47,14.96-.38,4.36-2.63,5.7-8.47,6.14v2.49h22.86v-2.49c-6.77-.53-9.13-1.87-9.31-6.41-.19-2.58-.47-6.59-.47-14.6v-22.26l40.26,46.57h3.57v-35.71c0-8.28,.19-12.02,.28-14.87,.23-3.32,1.57-4.53,5.27-5.21,5.46,.73,6.08,1.98,6.08,8.58v35.88c0,7.68-.84,8.04-9.46,8.86v2.53h28.16v-2.53c-8.72-.81-9.56-1.08-9.56-8.86v-35.88c0-7.77,.84-8.13,9.56-8.95Z"/><path class="d" d="M283.77,103.71c-1.38,4.27-3.93,10.69-5.41,13.45-2.85,.53-10.52,2.14-17.99,2.14-23.5,0-35.5-14.16-35.5-29.74,0-18.17,15.24-30.72,37.27-30.72,8.46,0,15.34,1.6,18.58,2.05,.39,4.01,1.08,9.35,1.87,13.8l-3.05,.62c-1.97-5.97-4.33-9.62-9.34-11.49-2.56-1.07-6.59-1.69-10.32-1.69-16.22,0-24.78,10.86-24.78,25.56,0,17.19,9.83,28.23,25.76,28.23,10.03,0,14.95-4.19,19.96-13.09l2.95,.89Z"/><path class="d" d="M342.61,104.03c-.67,2.32-3.68,11.49-4.79,14.16h-54.19v-2.49c10.37-.62,11.15-1.42,11.15-8.73v-35.17c0-7.92-1.23-8.37-9.59-8.99v-2.49h34.12c10.48,0,14.83-.09,16.17-.18,.11,2.23,.56,8.9,1,13.62l-3.35,.45c-1-3.03-2.12-4.9-3.35-6.77-1.78-2.94-4.35-3.56-11.04-3.56h-10.59c-3.46,0-3.68,.27-3.68,2.85v19.68h12.38c8.36,0,8.92-1.34,10.26-7.39h3.46v18.34h-3.46c-1.45-6.41-2.34-7.3-10.37-7.3h-12.27v17.72c0,6.23,2.45,6.77,8.03,6.86h10.37c6.8,0,7.92-.8,10.37-3.12,2.12-1.87,4.46-5.52,6.02-8.19l3.35,.71Z"/></g></g></svg>